<?xml version="1.0" standalone="no"?>
<!DOCTYPE svg PUBLIC "-//W3C//DTD SVG 20010904//EN"
 "http://www.w3.org/TR/2001/REC-SVG-20010904/DTD/svg10.dtd">
<svg version="1.0" xmlns="http://www.w3.org/2000/svg"
 width="512.000000pt" height="512.000000pt" viewBox="0 0 512.000000 512.000000"
 preserveAspectRatio="xMidYMid meet">
<metadata>
Created by potrace 1.11, written by Peter Selinger 2001-2013
</metadata>
<g transform="translate(0.000000,512.000000) scale(0.100000,-0.100000)"
fill="#000000" stroke="none">
<path d="M2495 5031 c-78 -25 -136 -81 -161 -155 -17 -51 -14 -127 7 -152 6
-8 8 -14 3 -15 -74 -4 -213 -26 -314 -49 -230 -54 -454 -146 -665 -273 -289
-174 -549 -421 -729 -692 -25 -38 -50 -75 -54 -81 -22 -32 -150 -274 -151
-287 0 -4 -9 -28 -21 -54 -63 -143 -128 -399 -155 -610 -12 -101 -14 -467 -2
-519 3 -11 8 -45 11 -75 3 -30 15 -97 26 -149 163 -748 671 -1363 1370 -1658
174 -73 401 -136 565 -157 22 -3 56 -8 75 -11 61 -10 412 -12 481 -3 37 4 90
10 118 13 28 3 55 7 59 10 4 2 25 7 47 10 82 13 244 58 350 97 648 240 1144
736 1384 1384 53 145 104 346 117 465 2 25 7 56 10 70 10 45 12 413 3 485 -13
105 -19 147 -25 180 -46 247 -108 432 -215 640 -66 130 -100 189 -111 193 -4
2 -8 8 -8 14 0 14 -114 170 -185 253 -86 101 -206 217 -310 300 -84 67 -220
165 -229 165 -2 0 -35 19 -72 42 -74 44 -276 142 -319 154 -5 1 -30 10 -55 19
-69 26 -238 74 -300 85 -30 6 -65 12 -77 14 -25 5 -95 15 -142 21 -43 5 -43 6
-30 44 13 37 5 121 -16 160 -49 95 -184 154 -280 122z"/>
</g>
</svg>
